<?xml version="1.0" encoding="UTF-8"?>
<svg width="18px" height="12px" viewBox="0 0 18 12" version="1.1" xmlns="http://www.w3.org/2000/svg" xmlns:xlink="http://www.w3.org/1999/xlink">
    <!-- Generator: sketchtool 55.2 (78181) - https://sketchapp.com -->
    <title>7742F506-2EC7-4331-91CD-7502C99FFBA0</title>
    <desc>Created with sketchtool.</desc>
    <g id="login.mobile" stroke="none" stroke-width="1" fill="none" fill-rule="evenodd">
        <g id="01-mobile.Login" transform="translate(-320.000000, -223.000000)" fill="#999999">
            <g id="Group-2" transform="translate(0.000000, 60.000000)">
                <g id="UIKit/formElement/input.right.Icon-Copy" transform="translate(20.000000, 144.000000)">
                    <g id="UIKit/Icon/Icon/search_left-[#1504]-Copy" transform="translate(299.000000, 15.000000)">
                        <path d="M14.2436854,11.9877635 C15.0414038,11.4642007 15.7520723,10.7934949 16.3341663,10.0004326 C14.8374997,7.96132884 12.4908331,6.7302535 9.9999998,6.7302535 C9.67927554,6.7302535 9.36094151,6.75066425 9.04650453,6.79058261 L7.57619372,5.3202718 C8.35028569,5.11126578 9.16245934,5 10,5 C13.5633333,5 16.6675,7.01401505 18.3333333,10.0004326 C17.6196199,11.2799401 16.641882,12.3807919 15.4771273,13.2212053 L14.2436854,11.9877635 Z M9.76705153,7.51112961 C9.84374707,7.50405072 9.92144906,7.50043253 10,7.50043253 C11.38125,7.50043253 12.5,8.61918253 12.5,10.0004325 C12.5,10.0789835 12.4963818,10.1566855 12.4893029,10.233381 L9.76705153,7.51112961 Z M15.9012293,14.8238187 L14.7732684,15.9517797 L13.2399827,14.418494 C12.227999,14.7948921 11.1373904,15 10,15 C6.43666667,15 3.3325,12.9868501 1.66666667,10.0004326 C2.5092231,8.48994214 3.71973432,7.22821195 5.17150546,6.35001676 L4.16666667,5.34517797 L5.34517797,4.16666667 L5.88388336,4.70537205 L5.83333301,4.7559224 L15.9012293,14.8238187 Z M11.078276,12.2567873 C10.7518463,12.4129795 10.386183,12.5004325 10,12.5004325 C8.61875,12.5004325 7.5,11.3816825 7.5,10.0004325 C7.5,9.61424953 7.58745301,9.24858623 7.74364518,8.92215649 L6.43515892,7.61367023 C5.3602739,8.17588838 4.40842714,8.9887003 3.66583327,10.0004326 C5.16249991,12.0395363 7.50916652,13.2697465 9.9999998,13.2697465 C10.6330879,13.2697465 11.2568626,13.1902737 11.8597347,13.038246 L11.078276,12.2567873 Z" id="Combined-Shape"></path>
                    </g>
                </g>
            </g>
        </g>
    </g>
</svg>