<?xml version="1.0" encoding="UTF-8"?>
<svg width="18px" height="18px" viewBox="0 0 18 18" version="1.1" xmlns="http://www.w3.org/2000/svg" xmlns:xlink="http://www.w3.org/1999/xlink">
    <!-- Generator: Sketch 56.2 (81672) - https://sketch.com -->
    <title>copyShare</title>
    <desc>Created with Sketch.</desc>
    <g id="detailPage.mobile" stroke="none" stroke-width="1" fill="none" fill-rule="evenodd">
        <g id="008-mobile.detail_2" transform="translate(-31.000000, -601.000000)" fill="#FFFFFF">
            <g id="Group-5" transform="translate(0.000000, 247.000000)">
                <g id="Group-3-Copy-3" transform="translate(20.000000, 343.000000)">
                    <g id="Group-Copy">
                        <g id="UIKit/Icon/Icon/link_round-[#1110]" transform="translate(10.000000, 10.000000)">
                            <path d="M16.8656193,3.1343991 C14.9086672,1.17742252 11.7356152,1.17742252 9.77866313,3.1343991 L7.63795969,5.27512936 L8.81897985,6.45616431 L10.9596833,4.31543406 C12.2651532,3.00994776 14.378294,3.00994776 15.6845991,4.31543406 C16.9867281,5.61841462 16.9867281,7.73742853 15.6845991,9.0404091 L13.5438957,11.1811394 L14.7249159,12.3621743 L16.8656193,10.2214441 C18.8225713,8.26446747 18.8225713,5.09137569 16.8656193,3.1343991 L16.8656193,3.1343991 Z M9.04031672,15.6839395 C8.40971544,16.3153839 7.57030578,16.6628454 6.67827641,16.6628454 C5.78624705,16.6628454 4.94683739,16.3153839 4.3162361,15.6839395 C3.01327186,14.3817942 3.01327186,12.261945 4.3162361,10.9597997 L6.45693954,8.81906945 L5.27508415,7.63719926 L3.13438072,9.77792951 C1.17742865,11.7349061 1.17742865,14.9079979 3.13438072,16.8658097 C4.11327437,17.8438804 5.39535777,18.3333333 6.67827641,18.3333333 C7.96119505,18.3333333 9.24327846,17.8438804 10.2221721,16.8658097 L12.3628755,14.7250795 L11.1810202,13.5432093 L9.04031672,15.6839395 Z M11.8859572,6.93308861 L13.0669774,8.11412356 L8.10151428,13.0796489 L6.92049412,11.8986139 L11.8859572,6.93308861 Z" id="Icon/link_round-[#1110]"></path>
                        </g>
                    </g>
                </g>
            </g>
        </g>
    </g>
</svg>