<?xml version="1.0" encoding="iso-8859-1"?>
<!-- Generator: Adobe Illustrator 21.0.0, SVG Export Plug-In . SVG Version: 6.00 Build 0)  -->
<svg xmlns="http://www.w3.org/2000/svg" xmlns:xlink="http://www.w3.org/1999/xlink" version="1.1" id="Capa_1" x="0px" y="0px" viewBox="0 0 512 512" style="enable-background:new 0 0 512 512;" xml:space="preserve" width="512" height="512">
<g>
	<path d="M148.423,213.749c-9.318,0-19.968-3.025-27.955-7.745l-9.197,20.815c8.471,5.204,22.751,8.713,36.91,8.713   c26.261,0,39.452-13.07,39.452-28.561c0-31.222-46.833-22.751-46.833-32.917c0-2.904,2.662-5.325,11.013-5.325   c7.382,0,15.248,2.057,23.598,6.293l8.592-20.694c-8.834-4.961-20.573-7.382-31.949-7.382c-26.261,0-39.452,12.828-39.452,28.56   c0,31.585,46.834,22.993,46.834,33.643C159.436,212.055,156.532,213.749,148.423,213.749z"/>
	<polygon points="228.169,196.323 246.564,225.972 259.149,225.972 277.544,194.991 277.786,233.596 303.805,233.596    303.563,148.884 280.085,148.884 253.22,194.023 225.628,148.884 202.15,148.884 202.15,233.596 228.169,233.596  "/>
	<path d="M355.473,213.749c-9.318,0-19.968-3.025-27.955-7.745l-9.197,20.815c8.471,5.204,22.751,8.713,36.91,8.713   c26.261,0,39.452-13.07,39.452-28.561c0-31.222-46.833-22.751-46.833-32.917c0-2.904,2.662-5.325,11.013-5.325   c7.382,0,15.248,2.057,23.598,6.293l8.592-20.694c-8.834-4.961-20.573-7.382-31.949-7.382c-26.261,0-39.452,12.828-39.452,28.56   c0,31.585,46.834,22.993,46.834,33.643C366.486,212.055,363.582,213.749,355.473,213.749z"/>
	<path d="M0,39.441v316.053h88.283v117.066l113.38-117.066H512V39.441H0z M482,325.493H188.955l-70.672,72.969v-72.969H30V69.441   h452V325.493z"/>
</g>















</svg>
