<?xml version="1.0" encoding="UTF-8"?>
<svg width="18px" height="18px" viewBox="0 0 18 18" version="1.1" xmlns="http://www.w3.org/2000/svg" xmlns:xlink="http://www.w3.org/1999/xlink">
    <!-- Generator: Sketch 56.2 (81672) - https://sketch.com -->
    <title>comment</title>
    <desc>Created with Sketch.</desc>
    <g id="detailPage.mobile" stroke="none" stroke-width="1" fill="none" fill-rule="evenodd">
        <g id="008-mobile.detail_2" transform="translate(-31.000000, -541.000000)" fill="#FFFFFF">
            <g id="Group-5" transform="translate(0.000000, 247.000000)">
                <g id="Group-3-Copy-2" transform="translate(20.000000, 283.000000)">
                    <g id="Group-Copy">
                        <g id="UIKit/Icon/Icon/message-[#1576]" transform="translate(10.000000, 10.000000)">
                            <path d="M18.3333333,1.66666667 L1.66666667,1.66666667 L1.66666667,15.8333333 L7.53833333,15.8333333 C8.20583333,17.0866667 8.65833333,18.3341667 10.0658333,18.3341667 C11.5508333,18.3341667 11.795,17.3158333 12.5966667,15.8333333 L18.3333333,15.8333333 L18.3333333,1.66666667 Z M16.6666667,3.33333333 L16.6666667,14.1666667 L11.72,14.1666667 C11.1108333,15.3016667 11.3858333,14.8266667 10.3708333,16.5041667 C10.2808333,16.6391667 10.1558333,16.6933333 10.0658333,16.6933333 C9.9775,16.6933333 9.85333333,16.6775 9.76333333,16.545 C9.3,15.8666667 9.56583333,16.3191667 8.42416667,14.1666667 L3.33333333,14.1666667 L3.33333333,3.33333333 L16.6666667,3.33333333 L16.6666667,3.33333333 Z" id="Icon/message-[#1576]"></path>
                        </g>
                    </g>
                </g>
            </g>
        </g>
    </g>
</svg>