<?xml version="1.0" encoding="UTF-8"?>
<svg width="20px" height="16px" viewBox="0 0 20 16" version="1.1" xmlns="http://www.w3.org/2000/svg" xmlns:xlink="http://www.w3.org/1999/xlink">
    <!-- Generator: sketchtool 55.2 (78181) - https://sketchapp.com -->
    <title>38F4EAF5-0763-4E6C-A498-C6EB3449941E</title>
    <desc>Created with sketchtool.</desc>
    <g id="detailPage.mobile" stroke="none" stroke-width="1" fill="none" fill-rule="evenodd">
        <g id="008-mobile.detail_2" transform="translate(-30.000000, -423.000000)" fill="#FFFFFF">
            <g id="Group-3" transform="translate(20.000000, 410.000000)">
                <g id="Group-Copy">
                    <g id="UIKit/Logo/flogo_RGB_HEX-72" transform="translate(10.000000, 13.000000)">
                        <g id="UIKit/Logo/twitter">
                            <path d="M20,1.81523073 C19.25625,2.12307688 18.46375,2.32712816 17.6375,2.42620508 C18.4875,1.94733329 19.13625,1.19482049 19.44125,0.287794866 C18.64875,0.73364101 17.77375,1.04856408 16.84125,1.22430767 C16.08875,0.468256401 15.01625,0 13.84625,0 C11.57625,0 9.74875,1.73856407 9.74875,3.86989736 C9.74875,4.17656402 9.77625,4.4714358 9.84375,4.75215375 C6.435,4.59528196 3.41875,3.05369224 1.3925,0.705333319 C1.03875,1.28446151 0.83125,1.94733329 0.83125,2.66092302 C0.83125,4.00082043 1.5625,5.18856399 2.6525,5.87620501 C1.99375,5.86441013 1.3475,5.6839486 0.8,5.3996922 C0.8,5.41148707 0.8,5.4268204 0.8,5.44215373 C0.8,7.32225626 2.22125,8.88389725 4.085,9.24364083 C3.75125,9.3297434 3.3875,9.37102545 3.01,9.37102545 C2.7475,9.37102545 2.4825,9.3568716 2.23375,9.30497417 C2.765,10.837128 4.2725,11.9635382 6.065,12.0001023 C4.67,13.0297946 2.89875,13.6502048 0.98125,13.6502048 C0.645,13.6502048 0.3225,13.636051 7.57912251e-14,13.5971279 C1.81625,14.7023074 3.96875,15.333333 6.29,15.333333 C13.835,15.333333 17.96,9.43589724 17.96,4.32399991 C17.96,4.15297427 17.95375,3.98784607 17.945,3.82389736 C18.75875,3.27897429 19.4425,2.5984102 20,1.81523073 Z" id="Path"></path>
                        </g>
                    </g>
                </g>
            </g>
        </g>
    </g>
</svg>