<?xml version="1.0" encoding="UTF-8"?>
<svg width="20px" height="20px" viewBox="0 0 20 20" version="1.1" xmlns="http://www.w3.org/2000/svg" xmlns:xlink="http://www.w3.org/1999/xlink">
    <!-- Generator: Sketch 56.2 (81672) - https://sketch.com -->
    <title>whatsapp</title>
    <desc>Created with Sketch.</desc>
    <g id="detailPage.mobile" stroke="none" stroke-width="1" fill="none" fill-rule="evenodd">
        <g id="008-mobile.detail_2" transform="translate(-30.000000, -300.000000)" fill="#FFFFFF">
            <g id="Group-5" transform="translate(0.000000, 247.000000)">
                <g id="Group-4" transform="translate(20.000000, 43.000000)">
                    <g id="Group-Copy-2">
                        <g id="UIKit/Logo/whatsApp" transform="translate(10.000000, 10.000000)">
                            <path d="M0,20 L1.41254284,14.8641667 C0.540902593,13.3608333 0.0828937411,11.6566667 0.0837310516,9.90916667 C0.0862429831,4.44583333 4.55329459,0 10.041865,0 C12.7053498,0.000833333333 15.205559,1.03333333 17.0861584,2.90666667 C18.9659205,4.78 20.0008363,7.27 20,9.91833333 C19.9974871,15.3825 15.5304355,19.8283333 10.041865,19.8283333 C8.37561709,19.8275 6.73365117,19.4116667 5.2792428,18.6216667 L0,20 Z M5.52373747,16.8275 C6.9270699,17.6566667 8.26676672,18.1533333 10.0385158,18.1541667 C14.6001835,18.1541667 18.3161675,14.4591667 18.31868,9.91666667 C18.3203541,5.365 14.6219535,1.675 10.0452143,1.67333333 C5.48019733,1.67333333 1.76672519,5.36833333 1.76504961,9.91 C1.76421326,11.7641667 2.31013971,13.1525 3.22699473,14.605 L2.39052152,17.645 L5.52373747,16.8275 Z M15.0581923,12.2741667 C14.9962313,12.1708333 14.8304439,12.1091667 14.5809253,11.985 C14.3322441,11.8608333 13.1089334,11.2616667 12.8803477,11.1791667 C12.6525992,11.0966667 12.4868117,11.055 12.3201869,11.3033333 C12.1543995,11.5508333 11.6771325,12.1091667 11.5322777,12.2741667 C11.387423,12.4391667 11.241731,12.46 10.9930498,12.3358333 C10.7443685,12.2116667 9.94222507,11.9508333 8.99187763,11.1066667 C8.25253245,10.45 7.75265807,9.63916667 7.60780335,9.39083333 C7.46294863,9.14333333 7.59273176,9.00916667 7.71665372,8.88583333 C7.82885332,8.775 7.96533494,8.59666667 8.09009421,8.45166667 C8.21652809,8.30833333 8.25755631,8.205 8.34128736,8.03916667 C8.4241811,7.87416667 8.38315289,7.72916667 8.3203546,7.605 C8.25755631,7.48166667 7.76019386,6.2625 7.55337816,5.76666667 C7.35074902,5.28416667 7.14560794,5.34916667 6.99321743,5.34166667 L6.51595044,5.33333333 C6.35016295,5.33333333 6.08054897,5.395 5.85280051,5.64333333 C5.62505205,5.89166667 4.98199757,6.49 4.98199757,7.70916667 C4.98199757,8.92833333 5.87373327,10.1058333 5.99765523,10.2708333 C6.12241449,10.4358333 7.75182076,12.9375 10.2478434,14.01 C10.8414966,14.265 11.3053666,14.4175 11.6662474,14.5316667 C12.2624125,14.72 12.8049897,14.6933333 13.2336927,14.63 C13.711797,14.5591667 14.7056846,14.0308333 14.9133376,13.4525 C15.1209906,12.8733333 15.1209906,12.3775 15.0581923,12.2741667 L15.0581923,12.2741667 Z" id="Shape"></path>
                        </g>
                    </g>
                </g>
            </g>
        </g>
    </g>
</svg>