<?xml version="1.0" encoding="utf-8"?>
<!-- Generator: Adobe Illustrator 21.0.0, SVG Export Plug-In . SVG Version: 6.00 Build 0)  -->
<svg version="1.1" id="Layer_1" xmlns="http://www.w3.org/2000/svg" xmlns:xlink="http://www.w3.org/1999/xlink" x="0px" y="0px"
	 viewBox="0 0 64 32" style="enable-background:new 0 0 64 32;" xml:space="preserve">
<style type="text/css">
	.st0{fill:#0E86CC;}
	.st1{fill:#C7C8CA;}
	.st2{fill:none;stroke:#231F20;stroke-width:0.25;stroke-miterlimit:10;}
	.st3{fill:#0064B6;}
	.st4{fill:#231F20;}
</style>
<path class="st0" d="M13.5,16.4c-0.6,0-1.1,0.5-1.1,1.1c0,0.4,0.2,0.8,0.6,1l-0.2,2.2h0.8h0.8l-0.2-2.2c0.3-0.2,0.6-0.5,0.6-1
	C14.7,16.9,14.2,16.4,13.5,16.4z M13.5,10.1c-1.6,0-3,1.3-3,3v1.6h0.2V15h5.6v-0.3h0.2v-1.6C16.5,11.5,15.2,10.1,13.5,10.1z
	 M23.7,12.6c-0.3,0.1-0.6,0.1-0.8,0.1c-2.4,0-4.4-2-4.4-4.4c0-0.6,0.1-1.2,0.4-1.7c-1.6-0.9-3.5-1.5-5.5-1.5C7.4,5.1,2.5,10,2.5,16
	s4.9,10.9,10.9,10.9S24.2,22,24.2,16C24.2,14.8,24.1,13.7,23.7,12.6z M18.5,21.1c0,0.6-0.4,1-1,1H9.6c-0.6,0-1-0.4-1-1v-5.4
	c0-0.5,0.4-1,1-1v-1.6c0-2.2,1.8-4,4-4s4,1.8,4,4v1.6c0.5,0,1,0.5,1,1v5.4H18.5z"/>
<path class="st1" d="M24.4,12.4c0.4,1.1,0.6,2.3,0.6,3.6c0,6.4-5.2,11.6-11.6,11.6S1.8,22.4,1.8,16S7,4.4,13.4,4.4
	c2.1,0,4.1,0.6,5.8,1.6c0.1-0.2,0.3-0.4,0.5-0.6c-1.8-1.1-4-1.7-6.3-1.7C6.6,3.7,1,9.2,1,16s5.5,12.3,12.3,12.3S25.7,22.8,25.7,16
	c0-1.4-0.2-2.7-0.6-3.9C24.8,12.2,24.6,12.3,24.4,12.4z"/>
<polygon points="20.9,6.6 20.2,7.4 22.9,10.8 26.7,5.4 26.1,4.5 22.9,8.2 "/>
<line class="st2" x1="27.3" y1="5.1" x2="27.3" y2="27.2"/>
<path class="st3" d="M32.1,18.6v0.6h0.6v0.7c0,0-1.7,0.1-1.7-1s1.1-1.5,2.2-1l0.2-0.7c0,0-3.1-0.9-3.2,1.7c0,0,0.2,2.5,3.4,1.5v-1.8
	L32.1,18.6z"/>
<rect x="34" y="16.7" class="st3" width="0.8" height="4"/>
<path class="st3" d="M36.7,17.7c-0.9,0-1.5,0.6-1.5,1.5s0.6,1.5,1.5,1.5s1.5-0.6,1.5-1.5C38.2,18.3,37.6,17.7,36.7,17.7z M36.7,19.9
	c-0.4,0-0.7-0.3-0.7-0.7c0-0.4,0.3-0.7,0.7-0.7s0.7,0.3,0.7,0.7S37.1,19.9,36.7,19.9z M40.2,17.7c-0.3,0-0.6,0.1-0.8,0.3v-1.3h-0.8
	v4h0.8v-0.3c0.2,0.2,0.5,0.3,0.8,0.3c0.8,0,1.4-0.6,1.4-1.5C41.6,18.3,41,17.7,40.2,17.7z M40.7,19.2c0,0.4-0.3,0.7-0.7,0.7
	s-0.7-0.3-0.7-0.7c0-0.4,0.3-0.7,0.7-0.7S40.7,18.7,40.7,19.2z M43.1,17.7c-0.5,0-0.8,0.1-1.2,0.4l-0.1,0.1l0.4,0.6l0.1-0.1
	c0.2-0.2,0.5-0.2,0.7-0.2c0.3,0,0.5,0.1,0.5,0.4h-0.7c-0.7,0-1.1,0.4-1.1,0.9c0,0.6,0.4,1,1.1,1c0.3,0,0.6-0.1,0.8-0.2v0.2h0.8v-1.9
	C44.3,18.1,43.8,17.7,43.1,17.7z M42.8,20c-0.1,0-0.4,0-0.4-0.3c0-0.1,0-0.2,0.4-0.2h0.6v0.1C43.4,19.8,43.2,20,42.8,20z"/>
<rect x="44.8" y="16.7" class="st3" width="0.8" height="4"/>
<path class="st3" d="M47.7,18.4C47.3,18.3,47,18.2,47,18c0-0.2,0.3-0.2,0.4-0.2c0.3,0,0.6,0.1,1,0.3l0.1,0.1l0.4-0.7l-0.1-0.1
	C48.4,17.2,48,17,47.5,17c-0.8,0-1.4,0.4-1.4,1.1c0,0.8,0.7,1,1.2,1.1c0.4,0.1,0.7,0.2,0.7,0.5S47.6,20,47.5,20
	c-0.4,0-0.8-0.2-1.1-0.5l-0.1-0.1L45.8,20l0.1,0.1c0.4,0.4,1,0.6,1.5,0.6c0.9,0,1.4-0.5,1.4-1.1C48.9,18.7,48.2,18.5,47.7,18.4z
	 M49.6,16.6c-0.3,0-0.5,0.2-0.5,0.5s0.2,0.5,0.5,0.5s0.5-0.2,0.5-0.5C50.1,16.8,49.9,16.6,49.6,16.6z"/>
<rect x="49.2" y="17.7" class="st3" width="0.8" height="2.9"/>
<path class="st3" d="M52.4,17.9c-0.2-0.2-0.5-0.2-0.8-0.2c-0.8,0-1.3,0.6-1.3,1.4s0.5,1.4,1.3,1.4c0.3,0,0.6-0.1,0.8-0.2l0,0
	c0,0.4-0.3,0.6-0.7,0.6c-0.3,0-0.5-0.1-0.8-0.3l-0.1-0.1l-0.4,0.6l0.1,0.1c0.4,0.2,0.8,0.4,1.2,0.4c0.9,0,1.5-0.5,1.5-1.4v-2.5h-0.8
	V17.9z M52.4,19.1c0,0.4-0.3,0.7-0.6,0.7c-0.4,0-0.6-0.3-0.7-0.7c0-0.4,0.3-0.7,0.7-0.7C52.1,18.4,52.4,18.7,52.4,19.1z M55.4,17.7
	c-0.4,0-0.6,0.1-0.9,0.3v-0.3h-0.8v2.9h0.8v-1.5c0-0.4,0.3-0.6,0.6-0.6s0.5,0.2,0.5,0.5v1.6h0.8v-1.8C56.5,18.1,56.1,17.7,55.4,17.7
	z"/>
<path class="st3" d="M31.4,23.6c0,0.2-0.1,0.4-0.4,0.4c-0.1,0-0.2,0-0.3-0.1V24h-0.2v-1.1h0.2v0.4c0.1-0.1,0.2-0.1,0.3-0.1
	C31.2,23.2,31.4,23.4,31.4,23.6z M31.2,23.6c0-0.1-0.1-0.3-0.2-0.3s-0.2,0.1-0.2,0.3c0,0.2,0.1,0.3,0.2,0.3S31.2,23.7,31.2,23.6z
	 M31.6,24.3c-0.1,0-0.1,0-0.2-0.1l0.1-0.1h0.1c0.1,0,0.1,0,0.1-0.1v-0.1l-0.3-0.8h0.2l0.2,0.6l0.2-0.6h0.2L31.8,24
	C31.8,24.2,31.7,24.3,31.6,24.3z"/>
<path class="st3" d="M35.6,23L35.6,23h-0.5H34v0.3h1.1c-0.1,0.3-0.5,0.6-1,0.6c-0.6,0-1-0.4-1-0.7c0-0.3,0.3-0.7,1-0.7
	c0.3,0,0.6,0.1,0.7,0.3h0.6c-0.3-0.3-0.8-0.6-1.4-0.6c-0.9,0-1.5,0.4-1.5,1s0.7,1,1.5,1s1.5-0.4,1.5-1C35.6,23.1,35.6,23,35.6,23z"
	/>
<polygon class="st3" points="35.6,24.1 36.3,22.2 36.5,22.2 37.2,23.3 37.9,22.2 38.1,22.2 38.7,24.1 38.2,24.1 37.9,23.1 
	37.4,23.9 37,23.9 36.6,23.1 36.3,24.1 "/>
<path class="st3" d="M40.3,24.1c-0.9,0-1.6-0.4-1.6-1s0.7-1,1.6-1s1.6,0.4,1.6,1S41.2,24.1,40.3,24.1z M40.3,22.5
	c-0.6,0-1,0.4-1,0.7c0,0.2,0.3,0.7,1,0.7s1-0.5,1-0.7C41.3,22.9,40.9,22.5,40.3,22.5z"/>
<g>
	<path class="st4" d="M34.3,11.5c-0.3-0.2-0.7-0.4-1.5-0.6c0,0,0,0,0,0l-0.1,0c-1.2-0.3-1.8-0.7-1.8-1.3c0-0.4,0.2-0.6,0.5-0.8
		c0.3-0.2,0.6-0.3,1-0.3c1,0,1.5,0.4,1.6,1.3l0,0.2h0.7l0-0.2c-0.1-0.6-0.3-1.1-0.7-1.5c-0.4-0.3-0.9-0.5-1.6-0.5
		C32,7.9,31.5,8,31,8.3c-0.5,0.3-0.8,0.8-0.8,1.4c0,0.5,0.2,0.9,0.6,1.2c0.3,0.3,1,0.5,2.1,0.8c0.1,0,0.1,0,0.2,0l0.1,0
		c0.7,0.2,1.1,0.5,1.1,1c0,0.4-0.2,0.7-0.5,1c-0.3,0.2-0.7,0.3-1.2,0.3c-1,0-1.6-0.5-1.8-1.5l0-0.1h-0.7l0,0.2
		c0.1,0.7,0.3,1.3,0.8,1.7c0.5,0.4,1,0.5,1.8,0.5c0.6,0,1.2-0.2,1.6-0.5c0.5-0.4,0.8-0.9,0.8-1.5C35.1,12.3,34.8,11.8,34.3,11.5z"/>
	<path class="st4" d="M38.6,7.9c-1,0-1.7,0.4-2.2,1.1c-0.4,0.6-0.7,1.4-0.7,2.4s0.2,1.8,0.7,2.4c0.5,0.7,1.2,1.1,2.2,1.1
		c0.7,0,1.2-0.2,1.7-0.6c0.4-0.3,0.6-0.7,0.8-1.1l0.1-0.1l-0.6-0.3l-0.1,0.2c-0.3,0.9-1,1.3-1.9,1.3c-0.7,0-1.2-0.3-1.6-0.8
		c-0.3-0.5-0.5-1.1-0.5-1.7h4.9v-0.4c0-0.9-0.2-1.7-0.7-2.3C40.3,8.2,39.6,7.9,38.6,7.9z M40.2,9.3c0.3,0.4,0.5,0.9,0.5,1.5h-4.1
		c0.1-0.6,0.3-1.1,0.6-1.5c0.4-0.5,0.9-0.7,1.6-0.7C39.4,8.6,39.8,8.8,40.2,9.3z"/>
	<path class="st4" d="M46.9,12.7c-0.1,0.4-0.3,0.8-0.7,1c-0.3,0.2-0.7,0.4-1.2,0.4c-0.7,0-1.3-0.3-1.7-0.8c-0.3-0.5-0.5-1.1-0.5-1.9
		c0-0.8,0.2-1.4,0.5-1.9c0.4-0.6,0.9-0.8,1.7-0.8c0.5,0,0.9,0.1,1.2,0.4c0.3,0.2,0.4,0.5,0.5,0.7l0.1,0.2l0.6-0.4l-0.1-0.1
		c-0.4-1-1.2-1.5-2.4-1.5c-1,0-1.7,0.4-2.2,1.1c-0.5,0.6-0.7,1.4-0.7,2.4c0,1,0.2,1.8,0.7,2.4c0.5,0.7,1.3,1.1,2.2,1.1
		c0.7,0,1.3-0.2,1.8-0.6l0,0c0.3-0.3,0.6-0.7,0.7-1.2l0-0.1L47,12.5L46.9,12.7z"/>
	<path class="st4" d="M53,11.6c0,0.2,0,0.5,0,0.6c0,0.2,0,0.3,0,0.4c-0.2,1-0.8,1.4-1.9,1.4c-0.6,0-1-0.2-1.3-0.5
		c-0.2-0.3-0.3-0.7-0.3-1.4V8h-0.7v4.4c0,1.6,0.8,2.4,2.3,2.4c0.8,0,1.5-0.2,1.9-0.7v0.6h0.7V8H53V11.6z"/>
	<path class="st4" d="M57.7,8C57.7,8,57.6,8,57.7,8c-0.9,0-1.5,0.2-1.9,0.6V8H55v6.6h0.7v-4.4c0-0.4,0.1-0.7,0.3-0.9
		c0.3-0.3,0.5-0.5,0.8-0.6c0.1,0,0.2-0.1,0.6-0.1h0.1L58,8L57.7,8z"/>
	<path class="st4" d="M63.5,11.1c0-0.9-0.2-1.7-0.7-2.3c-0.5-0.6-1.2-1-2.2-1c-1,0-1.7,0.4-2.2,1.1c-0.4,0.6-0.7,1.4-0.7,2.4
		s0.2,1.8,0.7,2.4c0.5,0.7,1.2,1.1,2.2,1.1c0.7,0,1.2-0.2,1.7-0.6c0.4-0.3,0.6-0.7,0.8-1.1l0.1-0.1l-0.6-0.3l-0.1,0.2
		c-0.3,0.9-1,1.3-1.9,1.3c-0.7,0-1.2-0.3-1.6-0.8c-0.3-0.5-0.5-1.1-0.5-1.7h4.9V11.1z M62.3,9.3c0.3,0.4,0.5,0.9,0.5,1.5h-4.1
		c0.1-0.6,0.3-1.1,0.6-1.5c0.4-0.5,0.9-0.7,1.6-0.7C61.4,8.6,61.9,8.8,62.3,9.3z"/>
</g>
</svg>
