<?xml version="1.0" encoding="UTF-8"?>
<svg width="20px" height="20px" viewBox="0 0 20 20" version="1.1" xmlns="http://www.w3.org/2000/svg" xmlns:xlink="http://www.w3.org/1999/xlink">
    <!-- Generator: Sketch 56.2 (81672) - https://sketch.com -->
    <title>UIKit/Icon/Icon/option_bar_settings [#1400] Copy 5</title>
    <desc>Created with Sketch.</desc>
    <g id="detailPage.mobile" stroke="none" stroke-width="1" fill="none" fill-rule="evenodd">
        <g id="020-Flow" transform="translate(-1830.000000, -142.000000)" fill="#999999">
            <g id="UIKit/Icon/Icon/why" transform="translate(1828.000000, 140.000000)">
                <path d="M12,22 C6.4771525,22 2,17.5228475 2,12 C2,6.4771525 6.4771525,2 12,2 C17.5228475,2 22,6.4771525 22,12 C22,17.5228475 17.5228475,22 12,22 Z M12,20 C16.418278,20 20,16.418278 20,12 C20,7.581722 16.418278,4 12,4 C7.581722,4 4,7.581722 4,12 C4,16.418278 7.581722,20 12,20 Z M10.94,14.074 L10.94,13.304 C10.94,13.0986656 10.9516665,12.9236674 10.975,12.779 C10.9983334,12.6343326 11.040333,12.5036673 11.101,12.387 C11.161667,12.2703328 11.2409995,12.1583339 11.339,12.051 C11.4370005,11.9436661 11.5559993,11.8153341 11.696,11.666 L12.774,10.574 C13.0073345,10.3406655 13.124,10.0373352 13.124,9.664 C13.124,9.29999818 13.0050012,9.00366781 12.767,8.775 C12.5289988,8.54633219 12.2280018,8.432 11.864,8.432 C11.471998,8.432 11.1500013,8.56499867 10.898,8.831 C10.6459987,9.09700133 10.5013335,9.42133142 10.464,9.804 L8.672,9.664 C8.72800028,9.21599776 8.84466578,8.81700175 9.022,8.467 C9.19933422,8.11699825 9.43033191,7.82066788 9.715,7.578 C9.99966809,7.33533212 10.3286648,7.15100063 10.702,7.025 C11.0753352,6.89899937 11.4859978,6.836 11.934,6.836 C12.3540021,6.836 12.7436649,6.89666606 13.103,7.018 C13.4623351,7.13933394 13.7749987,7.31433219 14.041,7.543 C14.3070013,7.77166781 14.5146659,8.05633163 14.664,8.397 C14.8133341,8.73766837 14.888,9.12733114 14.888,9.566 C14.888,9.87400154 14.8460004,10.1446655 14.762,10.378 C14.6779996,10.6113345 14.5660007,10.825999 14.426,11.022 C14.2859993,11.218001 14.1250009,11.4046658 13.943,11.582 C13.7609991,11.7593342 13.5673344,11.945999 13.362,12.142 C13.2313327,12.2633339 13.1193338,12.3706662 13.026,12.464 C12.9326662,12.5573338 12.855667,12.6529995 12.795,12.751 C12.734333,12.8490005 12.6900001,12.9609994 12.662,13.087 C12.6339999,13.2130006 12.62,13.3646658 12.62,13.542 L12.62,14.074 L10.94,14.074 Z M10.66,16.02 C10.66,15.7213318 10.7696656,15.4646677 10.989,15.25 C11.2083344,15.0353323 11.4719985,14.928 11.78,14.928 C12.0786682,14.928 12.3399989,15.0306656 12.564,15.236 C12.7880011,15.4413344 12.9,15.6933318 12.9,15.992 C12.9,16.2906682 12.7903344,16.5473323 12.571,16.762 C12.3516656,16.9766677 12.0880015,17.084 11.78,17.084 C11.6306659,17.084 11.488334,17.0560003 11.353,17 C11.217666,16.9439997 11.0986672,16.8693338 10.996,16.776 C10.8933328,16.6826662 10.811667,16.5706673 10.751,16.44 C10.690333,16.3093327 10.66,16.1693341 10.66,16.02 Z" id="Combined-Shape"></path>
            </g>
        </g>
    </g>
</svg>